<svg width="33" height="25" viewBox="0 0 33 25" fill="none" xmlns="http://www.w3.org/2000/svg">
	<rect x="1" y="1" width="30.0037" height="23" rx="3" stroke="white" stroke-width="2"/>
	<path d="M4.29006 6.536C4.7594 6.536 5.14073 6.48467 5.43406 6.382C5.74206 6.27933 5.9914 6.14 6.18206 5.964C6.37273 5.788 6.52673 5.58267 6.64406 5.348C6.7614 5.11333 6.86406 4.864 6.95206 4.6H8.58006V20H6.16006V8.252H4.29006V6.536ZM18.7767 16.304C18.7767 17.5507 18.4541 18.5113 17.8087 19.186C17.1634 19.846 16.2247 20.176 14.9927 20.176C13.7607 20.176 12.8221 19.846 12.1767 19.186C11.5314 18.5113 11.2087 17.5507 11.2087 16.304V15.094C11.2087 14.346 11.3261 13.7007 11.5607 13.158C11.7954 12.6007 12.1767 12.1753 12.7047 11.882C11.7074 11.3393 11.2087 10.3053 11.2087 8.78V8.296C11.2087 7.04933 11.5314 6.096 12.1767 5.436C12.8221 4.76133 13.7607 4.424 14.9927 4.424C16.2247 4.424 17.1634 4.76133 17.8087 5.436C18.4541 6.096 18.7767 7.04933 18.7767 8.296V8.78C18.7767 10.2907 18.2781 11.3247 17.2807 11.882C17.8087 12.1753 18.1901 12.6007 18.4247 13.158C18.6594 13.7007 18.7767 14.346 18.7767 15.094V16.304ZM13.6287 16.238C13.6287 16.9273 13.7607 17.3893 14.0247 17.624C14.2887 17.8587 14.6114 17.976 14.9927 17.976C15.3741 17.976 15.6894 17.8587 15.9387 17.624C16.2027 17.3893 16.3421 16.9273 16.3567 16.238V14.808C16.3567 14.192 16.2321 13.752 15.9827 13.488C15.7481 13.2093 15.4181 13.07 14.9927 13.07C14.5674 13.07 14.2301 13.2093 13.9807 13.488C13.7461 13.752 13.6287 14.192 13.6287 14.808V16.238ZM13.6287 9.242C13.6287 9.858 13.7534 10.2833 14.0027 10.518C14.2667 10.7527 14.5967 10.87 14.9927 10.87C15.3741 10.87 15.6967 10.7527 15.9607 10.518C16.2247 10.2833 16.3567 9.858 16.3567 9.242V8.384C16.3567 7.69467 16.2247 7.23267 15.9607 6.998C15.6967 6.74867 15.3741 6.624 14.9927 6.624C14.6114 6.624 14.2887 6.74867 14.0247 6.998C13.7607 7.23267 13.6287 7.69467 13.6287 8.384V9.242ZM24.5734 11.442H27.5214V13.158H24.5734V16.172H22.8574V13.158H19.9094V11.442H22.8574V8.472H24.5734V11.442Z" fill="white"/>
</svg>
