<svg width="56" height="56" viewBox="0 0 56 56" fill="none" xmlns="http://www.w3.org/2000/svg">
	<g filter="url(#filter0_d)">
		<path d="M36 26H19V30H36V26Z" fill="black"/>
		<path fill-rule="evenodd" clip-rule="evenodd" d="M44 28C44 36.8365 36.8365 44 28 44C19.1635 44 12 36.8365 12 28C12 19.1635 19.1635 12 28 12C36.8365 12 44 19.1635 44 28ZM41 28C41 35.1797 35.1797 41 28 41C20.8203 41 15 35.1797 15 28C15 20.8203 20.8203 15 28 15C35.1797 15 41 20.8203 41 28Z" fill="black"/>
	</g>
	<defs>
		<filter id="filter0_d" x="0" y="0" width="56" height="56" filterUnits="userSpaceOnUse" color-interpolation-filters="sRGB">
			<feFlood flood-opacity="0" result="BackgroundImageFix"/>
			<feColorMatrix in="SourceAlpha" type="matrix" values="0 0 0 0 0 0 0 0 0 0 0 0 0 0 0 0 0 0 127 0"/>
			<feOffset/>
			<feGaussianBlur stdDeviation="6"/>
			<feColorMatrix type="matrix" values="0 0 0 0 1 0 0 0 0 1 0 0 0 0 1 0 0 0 0.95 0"/>
			<feBlend mode="normal" in2="BackgroundImageFix" result="effect1_dropShadow"/>
			<feBlend mode="normal" in="SourceGraphic" in2="effect1_dropShadow" result="shape"/>
		</filter>
	</defs>
</svg>
