<svg width="63" height="59" viewBox="0 0 63 59" fill="none" xmlns="http://www.w3.org/2000/svg">
	<g filter="url(#filter0_d)">
		<path d="M17.4818 29.5356L17.4817 29.5355L16.813 28.8783C16.813 28.8782 16.8129 28.8782 16.8129 28.8782C13.3919 25.5157 13.3919 20.1472 16.813 16.7849L15.2378 15.1822L16.813 16.7849C18.5005 15.1264 20.7837 14.2621 23.0208 14.2621C25.2578 14.2621 27.5411 15.1264 29.2286 16.7849L30.7916 15.1946L29.2286 16.7849L29.8974 17.4423L31.4726 18.9904L33.0477 17.4423L33.7166 16.7849L32.1543 15.1954L33.7166 16.7849C37.1593 13.4012 42.6894 13.4012 46.1321 16.7849L47.7072 15.1822L46.1321 16.7849C47.8176 18.4415 48.6827 20.6672 48.6827 22.8315C48.6827 24.9958 47.8176 27.2215 46.1322 28.8782C46.1321 28.8782 46.1321 28.8783 46.132 28.8783L45.4633 29.5355L45.4632 29.5356L31.4726 43.2861L17.4818 29.5356Z" stroke="white" stroke-width="4.49427"/>
	</g>
	<defs>
		<filter id="filter0_d" x="0" y="0" width="62.9299" height="58.4369" filterUnits="userSpaceOnUse" color-interpolation-filters="sRGB">
			<feFlood flood-opacity="0" result="BackgroundImageFix"/>
			<feColorMatrix in="SourceAlpha" type="matrix" values="0 0 0 0 0 0 0 0 0 0 0 0 0 0 0 0 0 0 127 0"/>
			<feOffset/>
			<feGaussianBlur stdDeviation="6"/>
			<feColorMatrix type="matrix" values="0 0 0 0 1 0 0 0 0 1 0 0 0 0 1 0 0 0 0.95 0"/>
			<feBlend mode="normal" in2="BackgroundImageFix" result="effect1_dropShadow"/>
			<feBlend mode="normal" in="SourceGraphic" in2="effect1_dropShadow" result="shape"/>
		</filter>
	</defs>
</svg>
