<svg width="39" height="35" viewBox="0 0 39 35" fill="none" xmlns="http://www.w3.org/2000/svg">
	<path d="M5.48182 17.5356L5.48174 17.5355L4.81298 16.8783C4.81295 16.8782 4.81292 16.8782 4.81289 16.8782C1.39185 13.5157 1.39189 8.14725 4.81297 4.7849L3.23783 3.18224L4.81298 4.7849C6.50045 3.12639 8.78374 2.26208 11.0208 2.26208C13.2578 2.26208 15.5411 3.1264 17.2286 4.78489L18.7916 3.19455L17.2286 4.78489L17.8974 5.44226L19.4726 6.99039L21.0477 5.44226L21.7166 4.78489L20.1543 3.19536L21.7166 4.78489C25.1593 1.40122 30.6894 1.40122 34.1321 4.78489L35.7072 3.18224L34.1321 4.78489C35.8176 6.44151 36.6827 8.66722 36.6827 10.8315C36.6827 12.9958 35.8176 15.2215 34.1322 16.8782C34.1321 16.8782 34.1321 16.8783 34.132 16.8783L33.4633 17.5355L33.4632 17.5356L19.4726 31.2861L5.48182 17.5356Z" stroke="white" stroke-width="4.49427"/>
</svg>
