<svg width="98" height="48" viewBox="0 0 98 48" fill="none" xmlns="http://www.w3.org/2000/svg">
<path fill-rule="evenodd" clip-rule="evenodd" d="M92.3996 0H5.59909C4.11443 0.00175417 2.6911 0.59307 1.6414 1.6442C0.591712 2.69533 0.00140125 4.12041 0 5.60676V42.3932C0.00140125 43.8796 0.591712 45.3047 1.6414 46.3558C2.6911 47.4069 4.11443 47.9982 5.59909 48H92.3996C93.8844 47.9982 95.3078 47.407 96.3577 46.3559C97.4076 45.3048 97.9983 43.8797 98 42.3932V5.60676C97.9983 4.12029 97.4076 2.69521 96.3577 1.64412C95.3078 0.593027 93.8844 0.00175353 92.3996 0ZM21.3625 10.1641H14.1101V38.1594H21.3625V10.1641ZM35.1592 23.2461L36.8403 10.1641H46.327V38.1634H39.9853L39.9734 19.2706L37.4227 38.1634H32.8958L30.222 19.6814L30.1942 38.1634H23.8406V10.1641H33.2492C33.5325 11.8616 33.817 13.856 34.1281 16.1353L35.1592 23.2461ZM57.6064 38.1636C59.3421 38.1636 60.6437 38.0686 61.5112 37.8787C62.3042 37.7239 63.0481 37.3792 63.6793 36.8742C64.2893 36.361 64.7212 35.6674 64.913 34.8931C65.1565 34.053 65.2929 32.3753 65.2929 29.8575V20.0301C65.2929 17.3798 65.1843 15.6067 65.0347 14.6977C64.8644 13.7813 64.4417 12.9308 63.8143 12.2421C63.1776 11.508 62.2259 10.9793 60.9949 10.6519C59.7639 10.3246 57.7281 10.1616 54.2178 10.1616H48.8093V38.1636H57.6064ZM57.6752 15.2171C57.8192 15.3003 57.9434 15.4138 58.0394 15.5497C58.1354 15.6855 58.2008 15.8406 58.2311 16.0043C58.3119 16.3568 58.3529 17.1704 58.3529 18.4333V29.2744C58.3529 31.1482 58.2311 32.2879 57.9862 32.7093C57.7414 33.1307 57.106 33.3334 56.0616 33.3334V14.9574C56.8479 14.9574 57.3893 15.0369 57.6752 15.2131V15.2171ZM67.757 38.1634V10.1641H74.7485V19.2679C75.2823 18.6395 75.9427 18.131 76.6864 17.7758C77.4051 17.4366 78.476 17.2736 79.3019 17.2736C80.1615 17.2541 81.0164 17.4059 81.8169 17.7202C82.464 17.9779 83.0239 18.4156 83.4305 18.9817C83.7695 19.4542 83.9959 19.9982 84.0923 20.5719C84.173 21.0887 84.2008 22.1886 84.2008 23.8848V31.7457C84.2008 33.4154 84.0804 34.6743 83.862 35.4906C83.6436 36.3069 83.1009 37.0132 82.2736 37.6228C81.4463 38.2323 80.4443 38.5305 79.3046 38.5305C78.4786 38.5305 77.4223 38.3529 76.7023 38.0004C75.9452 37.6061 75.2802 37.0555 74.7512 36.3851L74.2919 38.1634H67.757ZM77.0014 33.9401C77.1378 33.5863 77.2053 32.7183 77.2053 31.3746L77.2026 24.2002C77.2026 23.0208 77.1206 22.2323 76.9723 21.8798C76.8241 21.5273 76.2284 21.3365 75.781 21.3365C75.3614 21.3365 75.0649 21.4889 74.9418 21.8109C74.8187 22.1329 74.7512 22.9201 74.7512 24.1962V31.5946C74.7512 32.8297 74.82 33.6035 74.9683 33.956C75.1165 34.3085 75.3879 34.4702 75.8353 34.4702C76.2827 34.4702 76.8651 34.294 77.0014 33.9401Z" fill="white"/>
</svg>
