<svg width="45" height="45" viewBox="0 0 45 45" fill="none" xmlns="http://www.w3.org/2000/svg">
	<g filter="url(#filter0_d)">
		<path fill-rule="evenodd" clip-rule="evenodd" d="M27.4773 25.356C28.4371 23.9794 29 22.3054 29 20.5C29 15.8056 25.1944 12 20.5 12C15.8056 12 12 15.8056 12 20.5C12 25.1944 15.8056 29 20.5 29C22.3054 29 23.9794 28.4371 25.356 27.4773L30.5 32.6213L32.6213 30.5L27.4773 25.356ZM27 20.5C27 24.0899 24.0899 27 20.5 27C16.9101 27 14 24.0899 14 20.5C14 16.9101 16.9101 14 20.5 14C24.0899 14 27 16.9101 27 20.5Z" fill="white"/>
	</g>
	<defs>
		<filter id="filter0_d" x="0" y="0" width="44.6213" height="44.6213" filterUnits="userSpaceOnUse" color-interpolation-filters="sRGB">
			<feFlood flood-opacity="0" result="BackgroundImageFix"/>
			<feColorMatrix in="SourceAlpha" type="matrix" values="0 0 0 0 0 0 0 0 0 0 0 0 0 0 0 0 0 0 127 0"/>
			<feOffset/>
			<feGaussianBlur stdDeviation="6"/>
			<feColorMatrix type="matrix" values="0 0 0 0 1 0 0 0 0 1 0 0 0 0 1 0 0 0 0.95 0"/>
			<feBlend mode="normal" in2="BackgroundImageFix" result="effect1_dropShadow"/>
			<feBlend mode="normal" in="SourceGraphic" in2="effect1_dropShadow" result="shape"/>
		</filter>
	</defs>
</svg>
