<svg width="32" height="32" viewBox="0 0 32 32" fill="none" xmlns="http://www.w3.org/2000/svg">
	<circle cx="16" cy="16" r="14.5" stroke="white" stroke-width="3"/>
	<mask id="path-2-inside-1" fill="white">
		<path d="M12 13H6V19H12L16 23V9L12 13Z"/>
	</mask>
	<path d="M6 13V7H0V13H6ZM12 13V19H14.4853L16.2426 17.2426L12 13ZM16 9H22V-5.48528L11.7574 4.75736L16 9ZM16 23L11.7574 27.2426L22 37.4853V23H16ZM12 19L16.2426 14.7574L14.4853 13H12V19ZM6 19H0V25H6V19ZM6 19H12V7H6V19ZM16.2426 17.2426L20.2426 13.2426L11.7574 4.75736L7.75736 8.75736L16.2426 17.2426ZM10 9V23H22V9H10ZM20.2426 18.7574L16.2426 14.7574L7.75736 23.2426L11.7574 27.2426L20.2426 18.7574ZM12 13H6V25H12V13ZM12 19V13H0V19H12Z" fill="white" mask="url(#path-2-inside-1)"/>
	<path fill-rule="evenodd" clip-rule="evenodd" d="M18.1243 11.9831C19.4913 12.766 20.4124 14.2391 20.4124 15.9273C20.4124 17.6629 19.439 19.1711 18.0083 19.9357L18.9497 21.7008C21.0103 20.5994 22.4124 18.4271 22.4124 15.9273C22.4124 13.4957 21.0857 11.374 19.1168 10.2463L18.1243 11.9831ZM19.7679 23.2349L20.7092 24.9999C23.9474 23.2693 26.1508 19.8556 26.1508 15.9273C26.1508 12.1062 24.066 8.77193 20.9718 7L19.9794 8.73678C22.4716 10.164 24.1508 12.8496 24.1508 15.9273C24.1508 19.0913 22.3761 21.8409 19.7679 23.2349Z" fill="white"/>
</svg>
