<svg width="20" height="16" viewBox="0 0 20 16" fill="none" xmlns="http://www.w3.org/2000/svg">
<path fill-rule="evenodd" clip-rule="evenodd" d="M17.643 2.54548C18.49 2.04255 19.141 1.24615 19.448 0.29713C18.655 0.76282 17.777 1.10105 16.842 1.28329C16.093 0.49343 15.027 0 13.847 0C11.581 0 9.743 1.8195 9.743 4.0638C9.743 4.38232 9.78 4.69252 9.85 4.98994C6.44 4.82048 3.416 3.20253 1.392 0.74381C1.039 1.344 0.837 2.04205 0.837 2.78685C0.837 4.19681 1.561 5.44068 2.662 6.1695C1.99 6.1483 1.357 5.96561 0.804 5.66115C0.803 5.67819 0.803 5.69512 0.803 5.71236C0.803 7.6813 2.218 9.3237 4.095 9.6972C3.75 9.79 3.388 9.8397 3.014 9.8397C2.749 9.8397 2.492 9.8143 2.242 9.7668C2.764 11.3813 4.279 12.5564 6.075 12.5891C4.67 13.6791 2.901 14.3288 0.979 14.3288C0.648 14.3288 0.321 14.3095 0 14.2719C1.816 15.425 3.973 16 6.29 16C13.837 16 17.965 9.9053 17.965 4.53504C17.965 4.35885 17.96 4.18354 17.952 4.00923C18.754 3.43627 19.45 2.72059 20 1.90557C19.264 2.22884 18.473 2.44723 17.643 2.54548Z" fill="white"/>
</svg>
