<svg width="40" height="39" viewBox="0 0 40 39" fill="none" xmlns="http://www.w3.org/2000/svg">
<path d="M37.5143 19.5C37.5143 29.441 29.4546 37.5 19.512 37.5C9.56949 37.5 1.50977 29.441 1.50977 19.5C1.50977 9.55904 9.56949 1.5 19.512 1.5C29.4546 1.5 37.5143 9.55904 37.5143 19.5Z" stroke="white" stroke-width="3"/>
<path fill-rule="evenodd" clip-rule="evenodd" d="M19.5117 16.5C21.997 16.5 24.0117 14.4853 24.0117 12C24.0117 9.51472 21.997 7.5 19.5117 7.5C17.0264 7.5 15.0117 9.51472 15.0117 12C15.0117 14.4853 17.0264 16.5 19.5117 16.5Z" fill="white"/>
<path d="M16.5117 19.5H22.5117V36H16.5117V19.5Z" fill="white"/>
</svg>
