<svg width="58" height="58" viewBox="0 0 58 58" fill="none" xmlns="http://www.w3.org/2000/svg">
<path fill-rule="evenodd" clip-rule="evenodd" d="M41.2402 55.2707C55.7557 48.4965 62.0427 31.2431 55.2826 16.7342C48.5225 2.22528 31.2753 -4.04491 16.7598 2.72932C2.24432 9.50354 -4.04269 26.7569 2.71738 41.2658C9.47746 55.7747 26.7247 62.0449 41.2402 55.2707ZM29.4545 12.8066C31.1445 16.4338 29.5727 20.7471 25.9438 22.4407C22.315 24.1342 18.0032 22.5667 16.3131 18.9395C14.6231 15.3123 16.1949 10.9989 19.8238 9.30535C23.4526 7.6118 27.7644 9.17936 29.4545 12.8066ZM22.4332 32.0748C24.1233 35.702 22.5515 40.0154 18.9226 41.7089C15.2938 43.4025 10.9819 41.8349 9.29194 38.2077C7.60192 34.5805 9.17368 30.2672 12.8025 28.5736C16.4314 26.8801 20.7432 28.4476 22.4332 32.0748ZM48.7159 19.809C50.4059 23.4362 48.8341 27.7496 45.2053 29.4431C41.5764 31.1367 37.2646 29.5691 35.5746 25.9419C33.8845 22.3147 35.4563 18.0013 39.0852 16.3078C42.714 14.6142 47.0258 16.1818 48.7159 19.809ZM41.6946 39.0773C43.3847 42.7045 41.8129 47.0178 38.184 48.7114C34.5552 50.4049 30.2433 48.8374 28.5533 45.2102C26.8633 41.583 28.4351 37.2696 32.0639 35.576C35.6928 33.8825 40.0046 35.45 41.6946 39.0773ZM32.9463 27.1685C33.9603 29.3448 33.0173 31.9328 30.8399 32.949C28.6626 33.9651 26.0755 33.0246 25.0615 30.8482C24.0475 28.6719 24.9905 26.0839 27.1679 25.0678C29.3452 24.0516 31.9323 24.9921 32.9463 27.1685Z" fill="white"/>
</svg>
