<svg width="182" height="60" viewBox="0 0 182 60" fill="none" xmlns="http://www.w3.org/2000/svg">
<g clip-path="url(#clip0)">
<path fill-rule="evenodd" clip-rule="evenodd" d="M176.614 8.14062C176.614 7.03142 177.048 6.36431 178.13 6.36431H179.539C180.297 6.36431 181.054 6.03126 181.054 5.1441C181.054 4.3663 180.513 4.03325 179.646 4.03325H171.09C170.116 4.03325 169.683 4.47699 169.683 5.1441C169.683 6.03126 170.441 6.36431 171.09 6.36431H172.391C173.582 6.36431 173.907 7.14211 173.907 8.14062V32.7875C173.907 33.786 174.339 34.5634 175.207 34.5634C175.964 34.5634 176.614 33.8967 176.614 32.7875V8.14062ZM164.701 34.5634C165.675 34.5634 166.217 34.0077 166.217 33.3422C166.217 32.5654 165.675 32.1207 164.701 32.1207H162.21C160.91 32.1207 160.477 31.4552 160.477 30.3444V21.6853C160.477 20.464 161.126 19.7983 162.21 19.7983H164.267C165.134 19.7983 165.784 19.4652 165.784 18.5767C165.784 17.9109 165.35 17.4665 164.267 17.4665H162.21C161.018 17.4665 160.477 16.8004 160.477 15.5792V8.2523C160.477 6.92007 160.91 6.36431 162.102 6.36431H164.917C165.675 6.36431 166.217 5.92057 166.217 5.1441C166.217 4.47699 165.784 4.03325 164.917 4.03325H159.935C158.419 4.03325 157.769 5.25512 157.769 6.58734V31.8987C157.769 33.5639 158.852 34.5634 160.152 34.5634H164.701ZM113.117 9.25081V29.0132C113.117 30.9002 112.249 32.1207 110.734 32.1207C109.109 32.1207 108.243 31.0112 108.243 29.0132V9.36216C108.243 7.58585 109.109 6.14261 110.734 6.14261C112.358 6.14261 113.117 7.58585 113.117 9.25081ZM105.535 9.47284V29.4569C105.535 32.8982 107.376 34.6748 110.625 34.6748C113.658 34.6748 115.824 32.5654 115.824 29.1232V9.02909C115.824 5.58751 113.874 3.70052 110.734 3.70052C107.376 3.70052 105.535 6.1426 105.535 9.47284ZM134.491 34.6748C135.574 34.6748 136.44 33.786 136.549 32.5654L139.581 5.47683C139.69 4.58835 139.365 3.70053 138.499 3.70053C137.74 3.70053 137.199 4.14428 137.091 5.36582L134.599 30.0114L132.325 6.14262C132.217 4.477 131.567 3.58984 130.484 3.58984C129.293 3.58984 128.751 4.58835 128.643 6.03127L126.26 30.0114L123.877 5.58752C123.769 4.36632 123.444 3.58984 122.47 3.58984C121.603 3.58984 121.061 4.36632 121.17 5.47683L124.093 32.4544C124.202 33.786 124.961 34.6748 126.26 34.6748C127.451 34.6748 128.101 33.6746 128.209 32.6761L130.375 9.25082H130.484L132.542 32.5654C132.65 33.8967 133.3 34.6748 134.491 34.6748ZM78.1332 34.7855C81.0581 34.7855 83.1156 32.5654 83.1156 29.0132V27.2359C83.1156 24.9048 83.0079 22.24 79.7581 18.022C77.3757 14.9134 76.2926 12.8034 76.2926 9.80656V8.58535C76.2926 7.25279 77.0508 6.1426 78.3504 6.1426C79.7581 6.1426 80.4079 7.25279 80.4079 8.69637V10.5837C80.4079 11.5829 81.0581 12.138 81.7079 12.138C82.5744 12.138 83.1156 11.3608 83.1156 10.5837V8.36364C83.1156 5.47682 81.4913 3.70052 78.3504 3.70052C75.5345 3.70052 73.585 5.69853 73.585 8.69637V10.4727C73.585 13.2481 74.6677 16.0233 77.5923 19.9089C80.1916 23.3505 80.4079 26.1267 80.4079 28.0137V29.3459C80.4079 31.0112 79.7581 32.2317 78.2421 32.2317C76.9425 32.2317 76.2926 31.3442 76.2926 29.7896V27.5689C76.2926 26.5701 75.7508 25.9046 74.9929 25.9046C74.1265 25.9046 73.585 26.6808 73.585 27.5689V30.0113C73.585 33.1202 75.4258 34.7855 78.1332 34.7855ZM146.296 34.7855C148.896 34.7855 150.737 32.8982 150.737 29.7896V5.3658C150.737 4.25528 150.196 3.70052 149.437 3.70052C148.571 3.70052 148.029 4.3663 148.029 5.3658V30.0113C148.029 31.2332 147.488 32.2317 146.405 32.2317C145.43 32.2317 144.78 31.4552 144.78 30.0113V27.7916C144.78 26.7921 144.455 25.9046 143.48 25.9046C142.506 25.9046 142.073 26.7921 142.073 27.7916V30.1224C142.073 33.1202 143.698 34.7855 146.296 34.7855ZM97.5125 34.5634C98.2707 34.5634 98.9205 34.0077 98.9205 33.0092V5.4768C98.9205 4.47697 98.4876 3.81119 97.6208 3.81119C96.6464 3.81119 96.2129 4.69934 96.2129 5.4768V15.8012C96.2129 16.8004 95.5633 17.4665 94.6969 17.4665H92.8554C91.9889 17.4665 91.3394 16.9117 91.3394 15.8012V5.4768C91.3394 4.47697 90.7979 3.81119 90.0397 3.81119C89.1733 3.81119 88.6317 4.47697 88.6317 5.4768V33.0092C88.6317 34.1197 89.3899 34.5634 90.0397 34.5634C90.7979 34.5634 91.3394 34.0077 91.3394 33.0092V21.4632C91.3394 20.575 91.8813 19.6872 92.8554 19.6872H94.6969C95.6716 19.6872 96.2129 20.575 96.2129 21.4632V33.0092C96.2129 34.1197 96.863 34.5634 97.5125 34.5634Z" fill="white"/>
<path d="M74.129 41.9002C74.129 41.0362 74.337 40.3536 74.753 39.8522C75.1796 39.3402 75.825 39.0842 76.689 39.0842C77.553 39.0842 78.1983 39.3402 78.625 39.8522C79.0516 40.3536 79.265 41.0362 79.265 41.9002V47.6922C79.265 48.5456 79.0516 49.2282 78.625 49.7402C78.1983 50.2522 77.553 50.5082 76.689 50.5082C75.825 50.5082 75.1796 50.2522 74.753 49.7402C74.337 49.2282 74.129 48.5456 74.129 47.6922V41.9002ZM75.361 47.7562C75.361 48.2682 75.4676 48.6682 75.681 48.9562C75.905 49.2336 76.241 49.3722 76.689 49.3722C77.1476 49.3722 77.4836 49.2336 77.697 48.9562C77.9103 48.6682 78.017 48.2682 78.017 47.7562V41.8362C78.017 41.3242 77.9103 40.9296 77.697 40.6522C77.4836 40.3642 77.1476 40.2202 76.689 40.2202C76.241 40.2202 75.905 40.3642 75.681 40.6522C75.4676 40.9296 75.361 41.3242 75.361 41.8362V47.7562ZM82.0917 45.3562V50.3962H80.8437V39.1962H82.0917V44.2362H84.8437V39.1962H86.0917V50.3962H84.8437V45.3562H82.0917ZM90.159 40.3322L89.903 47.6122C89.8816 48.0602 89.8336 48.4549 89.759 48.7962C89.6843 49.1376 89.5616 49.4309 89.391 49.6762C89.2203 49.9109 88.991 50.0922 88.703 50.2202C88.4256 50.3482 88.0736 50.4122 87.647 50.4122H87.439V49.2762C87.695 49.2762 87.903 49.2442 88.063 49.1802C88.223 49.1162 88.3456 49.0202 88.431 48.8922C88.527 48.7536 88.591 48.5829 88.623 48.3802C88.655 48.1776 88.6763 47.9429 88.687 47.6762L88.991 39.1962H93.551V50.3962H92.303V40.3322H90.159ZM96.5483 48.1402L96.1163 50.3962H94.9643L97.1083 39.1962H98.9163L101.06 50.3962H99.8123L99.3803 48.1402H96.5483ZM96.7083 47.0682H99.2043L97.9403 40.6042L96.7083 47.0682ZM106.866 36.9082C106.866 37.3989 106.712 37.7829 106.402 38.0602C106.104 38.3376 105.682 38.4762 105.138 38.4762C104.594 38.4762 104.173 38.3376 103.874 38.0602C103.586 37.7829 103.432 37.3989 103.41 36.9082H104.194C104.216 37.2176 104.312 37.4309 104.482 37.5482C104.653 37.6656 104.872 37.7242 105.138 37.7242C105.405 37.7242 105.624 37.6656 105.794 37.5482C105.976 37.4309 106.077 37.2176 106.098 36.9082H106.866ZM105.474 45.0042L103.73 50.3962H102.434V39.1962H103.538V47.5482L104.578 44.3162L106.322 39.1962H107.714V50.3962H106.594V41.4842L105.474 45.0042ZM110.645 45.3562V50.3962H109.397V39.1962H110.645V44.2362H113.397V39.1962H114.645V50.3962H113.397V45.3562H110.645ZM116.28 44.2362H119.336V45.3562H116.28V44.2362ZM122.866 45.5322L122.21 46.6362V50.3962H120.962V39.1962H122.21V44.6042L125.186 39.1962H126.45L123.618 44.3002L126.546 50.3962H125.266L122.866 45.5322ZM130.853 45.2282L129.205 50.3962H127.909V39.1962H129.013V47.5482L130.005 44.4602L131.797 39.1962H133.189V50.3962H132.069V41.4842L130.853 45.2282ZM136.104 45.3562V50.3962H134.856V39.1962H136.104V44.2362H138.856V39.1962H140.104V50.3962H138.856V45.3562H136.104ZM141.691 41.9002C141.691 41.0362 141.899 40.3536 142.315 39.8522C142.742 39.3402 143.387 39.0842 144.251 39.0842C145.115 39.0842 145.761 39.3402 146.187 39.8522C146.614 40.3536 146.827 41.0362 146.827 41.9002V47.6922C146.827 48.5456 146.614 49.2282 146.187 49.7402C145.761 50.2522 145.115 50.5082 144.251 50.5082C143.387 50.5082 142.742 50.2522 142.315 49.7402C141.899 49.2282 141.691 48.5456 141.691 47.6922V41.9002ZM142.923 47.7562C142.923 48.2682 143.03 48.6682 143.243 48.9562C143.467 49.2336 143.803 49.3722 144.251 49.3722C144.71 49.3722 145.046 49.2336 145.259 48.9562C145.473 48.6682 145.579 48.2682 145.579 47.7562V41.8362C145.579 41.3242 145.473 40.9296 145.259 40.6522C145.046 40.3642 144.71 40.2202 144.251 40.2202C143.803 40.2202 143.467 40.3642 143.243 40.6522C143.03 40.9296 142.923 41.3242 142.923 41.8362V47.7562ZM150.118 50.3962V40.3322H148.054V39.1962H153.43V40.3322H151.366V50.3962H150.118ZM158.743 44.1562V45.2762H156.007V49.2602H159.367V50.3962H154.759V39.1962H159.367V40.3322H156.007V44.1562H158.743ZM162.189 48.1402L161.757 50.3962H160.605L162.749 39.1962H164.557L166.701 50.3962H165.453L165.021 48.1402H162.189ZM162.349 47.0682H164.845L163.581 40.6042L162.349 47.0682ZM169.787 50.3962V40.3322H167.723V39.1962H173.099V40.3322H171.035V50.3962H169.787ZM176.876 39.1962C177.761 39.1962 178.401 39.4416 178.796 39.9322C179.191 40.4122 179.388 41.0789 179.388 41.9322V43.2762C179.388 44.1722 179.175 44.8496 178.748 45.3082C178.332 45.7562 177.676 45.9802 176.78 45.9802H175.676V50.3962H174.428V39.1962H176.876ZM176.78 44.8602C177.249 44.8602 177.596 44.7482 177.82 44.5242C178.044 44.2896 178.156 43.9002 178.156 43.3562V41.8682C178.156 41.3562 178.055 40.9722 177.852 40.7162C177.66 40.4602 177.335 40.3322 176.876 40.3322H175.676V44.8602H176.78Z" fill="white"/>
</g>
<path fill-rule="evenodd" clip-rule="evenodd" d="M44.8848 15.0623C40.9963 11.1691 35.7362 8.94165 30.126 8.94165V10.6475C35.2797 10.6475 40.1079 12.6921 43.68 16.2685L44.8848 15.0623Z" fill="white"/>
<path fill-rule="evenodd" clip-rule="evenodd" d="M45.3362 14.6098C41.2865 10.5553 35.8075 8.23511 29.9646 8.23511V10.588C35.1778 10.588 40.061 12.6559 43.6744 16.2736L45.3362 14.6098Z" fill="white"/>
<path fill-rule="evenodd" clip-rule="evenodd" d="M49.4907 10.4502C44.3462 5.29957 37.387 2.35254 29.9646 2.35254V4.70548C36.7573 4.70548 43.1208 7.40024 47.8289 12.114L49.4907 10.4502Z" fill="white"/>
<g opacity="0.4">
<path fill-rule="evenodd" clip-rule="evenodd" d="M29.9634 56.47C44.5653 56.47 56.4024 44.6187 56.4024 29.9994C56.4024 15.3801 44.5653 3.52881 29.9634 3.52881C15.3616 3.52881 3.52441 15.3801 3.52441 29.9994C3.52441 44.6187 15.3616 56.47 29.9634 56.47ZM29.9615 55.2929C43.9144 55.2929 55.2254 43.9684 55.2254 29.9988C55.2254 16.0293 43.9144 4.7047 29.9615 4.7047C16.0086 4.7047 4.69758 16.0293 4.69758 29.9988C4.69758 43.9684 16.0086 55.2929 29.9615 55.2929Z" fill="white"/>
<path fill-rule="evenodd" clip-rule="evenodd" d="M29.9635 49.4116C40.6715 49.4116 49.3521 40.7206 49.3521 29.9998C49.3521 19.279 40.6715 10.588 29.9635 10.588C19.2555 10.588 10.5749 19.279 10.5749 29.9998C10.5749 40.7206 19.2555 49.4116 29.9635 49.4116ZM29.9653 50.5878C18.6083 50.5878 9.40161 41.3702 9.40161 29.9996C9.40161 18.629 18.6083 9.41138 29.9653 9.41138C41.3223 9.41138 50.5289 18.629 50.5289 29.9996C50.5289 41.3702 41.3223 50.5878 29.9653 50.5878Z" fill="white"/>
<path fill-rule="evenodd" clip-rule="evenodd" d="M59.9284 30.5883V29.4119H0V30.5883H59.9284Z" fill="white"/>
<path fill-rule="evenodd" clip-rule="evenodd" d="M30.5515 0H29.3765V60H30.5515V0Z" fill="white"/>
<path fill-rule="evenodd" clip-rule="evenodd" d="M51.5797 9.20199L50.7488 8.37109L29.1196 30.0002L29.9505 30.8311L51.5797 9.20199Z" fill="white"/>
</g>
<path fill-rule="evenodd" clip-rule="evenodd" d="M21.1511 38.7902L24.9628 35.0206C26.2204 36.5045 28.3448 37.7285 30.2635 37.7285C31.8147 37.7285 32.6998 36.9612 32.6998 35.7577C32.6998 31.9307 21.9276 32.4054 21.9276 24.1637C21.9276 20.2277 25.0997 16.4705 30.2635 16.4705C33.5816 16.4705 36.8806 17.6207 39.8934 20.8852L36.0818 24.6515C34.8242 23.1693 32.6998 21.951 30.7786 21.951C29.1577 21.951 28.1971 23.0004 28.1971 24.1637C28.1971 28.3956 38.9693 27.3741 38.9693 35.6855C38.9693 39.9142 35.2862 43.1959 30.3066 43.1959C26.9868 43.1959 24.1631 42.0531 21.1511 38.7902Z" fill="white"/>
<defs>
<clipPath id="clip0">
<rect width="107.547" height="55.4717" fill="white" transform="translate(73.585 3.39624)"/>
</clipPath>
</defs>
</svg>
