<svg width="13" height="22" viewBox="0 0 13 22" fill="none" xmlns="http://www.w3.org/2000/svg">
<path fill-rule="evenodd" clip-rule="evenodd" d="M6.42952 11.2156C3.36102 11.2052 0.844924 8.66475 0.862824 5.59542C0.880524 2.4922 3.39822 -0.00856197 6.49692 2.20327e-05C9.60182 0.00838203 12.0939 2.54511 12.0783 5.68058C12.0625 8.74365 9.52902 11.2263 6.42952 11.2156ZM5.40972 15.5774C3.73902 15.4018 2.23262 14.987 0.942824 13.9702C0.910724 13.9449 0.878524 13.9197 0.846224 13.8945C0.717324 13.794 0.588324 13.6934 0.471524 13.5805C-0.0929763 13.034 -0.149876 12.408 0.296824 11.763C0.679024 11.2111 1.32042 11.0634 1.98722 11.3803C2.11632 11.4418 2.23932 11.5184 2.35722 11.6008C4.76082 13.2656 8.06282 13.3115 10.4755 11.6757C10.7145 11.4909 10.97 11.3403 11.2661 11.2634C11.8419 11.1144 12.3789 11.3275 12.6879 11.8354C13.0409 12.4153 13.0364 12.9814 12.6015 13.4317C11.9342 14.122 11.1318 14.6214 10.2403 14.9699C9.39722 15.2994 8.47382 15.4653 7.55992 15.5754L7.65252 15.6773C7.73222 15.7653 7.78472 15.8233 7.84902 15.8884C8.30122 16.3464 8.75402 16.8036 9.20692 17.2608L9.20752 17.2614C9.99742 18.0589 10.7873 18.8564 11.5733 19.6576C11.9947 20.0871 12.0828 20.6198 11.8507 21.1194C11.597 21.6655 11.0291 22.0247 10.4723 21.9863C10.1195 21.9617 9.84442 21.7847 9.59992 21.5364C9.29302 21.2252 8.98422 20.9158 8.67552 20.6064L8.67542 20.6063C8.04202 19.9716 7.40862 19.337 6.79182 18.6863C6.52482 18.4048 6.39632 18.4581 6.16072 18.7024C5.21852 19.6801 4.26112 20.6427 3.29792 21.5999C2.86552 22.0297 2.35082 22.1071 1.84932 21.8616C1.31622 21.6011 0.976924 21.0525 1.00312 20.5012C1.02112 20.1283 1.20312 19.8435 1.45702 19.588C2.44612 18.5924 3.43292 17.5949 4.41962 16.5975L4.42102 16.5961L5.13502 15.8743C5.18492 15.8237 5.23272 15.7711 5.28962 15.7085L5.28982 15.7083C5.32532 15.6693 5.36442 15.6263 5.40972 15.5774ZM6.47452 2.86421C7.99752 2.8656 9.21282 4.07885 9.21812 5.60284C9.22322 7.1266 8.01122 8.34774 6.48872 8.35308C4.96162 8.35865 3.73582 7.15399 3.72452 5.6358C3.71262 4.09788 4.93882 2.86258 6.47452 2.86421Z" fill="white"/>
</svg>
