<svg width="27" height="35" viewBox="0 0 27 35" fill="none" xmlns="http://www.w3.org/2000/svg">
	<path fill-rule="evenodd" clip-rule="evenodd" d="M22.2353 25.412C19.6038 25.412 17.4706 27.5452 17.4706 30.1767C17.4706 32.8082 19.6038 34.9414 22.2353 34.9414C24.8668 34.9414 27 32.8082 27 30.1767C27 27.5452 24.8668 25.412 22.2353 25.412Z" fill="white"/>
	<path fill-rule="evenodd" clip-rule="evenodd" d="M22.2353 0.0001297C19.6038 0.0001297 17.4706 2.13336 17.4706 4.76484C17.4706 7.39631 19.6038 9.52954 22.2353 9.52954C24.8668 9.52954 27 7.39631 27 4.76484C27 2.13336 24.8668 0.0001297 22.2353 0.0001297Z" fill="white"/>
	<path fill-rule="evenodd" clip-rule="evenodd" d="M4.76471 12.7062C2.13324 12.7062 7.62939e-06 14.8394 7.62939e-06 17.4709C7.62939e-06 20.1024 2.13324 22.2356 4.76471 22.2356C7.39619 22.2356 9.52942 20.1024 9.52942 17.4709C9.52942 14.8394 7.39619 12.7062 4.76471 12.7062Z" fill="white"/>
	<path d="M22.2344 30.1768L4.76379 17.4709" stroke="white" stroke-width="3" stroke-linecap="square"/>
	<path d="M22.2344 4.76489L4.76379 17.4708" stroke="white" stroke-width="3" stroke-linecap="square"/>
</svg>
