<svg width="48" height="48" viewBox="0 0 48 48" fill="none" xmlns="http://www.w3.org/2000/svg">
	<path d="M45.7529 23.9695C45.7529 35.9637 36.0165 45.6918 24 45.6918C11.9835 45.6918 2.24714 35.9637 2.24714 23.9695C2.24714 11.9753 11.9835 2.24714 24 2.24714C36.0165 2.24714 45.7529 11.9753 45.7529 23.9695Z" stroke="white" stroke-width="4.49427"/>
	<mask id="path-2-inside-1" fill="white">
		<path d="M18.0008 19.4748H9.00079V28.4633H18.0008L24.0008 34.4557V13.4824L18.0008 19.4748Z"/>
	</mask>
	<path d="M9.00079 19.4748V10.4862H0.0122442V19.4748H9.00079ZM18.0008 19.4748V28.4633H21.7206L24.3526 25.8347L18.0008 19.4748ZM24.0008 13.4824H32.9893V-8.19834L17.649 7.12251L24.0008 13.4824ZM24.0008 34.4557L17.649 40.8156L32.9893 56.1365V34.4557H24.0008ZM18.0008 28.4633L24.3526 22.1034L21.7206 19.4748H18.0008V28.4633ZM9.00079 28.4633H0.0122442V37.4519H9.00079V28.4633ZM9.00079 28.4633H18.0008V10.4862H9.00079V28.4633ZM24.3526 25.8347L30.3526 19.8423L17.649 7.12251L11.649 13.1149L24.3526 25.8347ZM15.0122 13.4824V34.4557H32.9893V13.4824H15.0122ZM30.3526 28.0958L24.3526 22.1034L11.649 34.8232L17.649 40.8156L30.3526 28.0958ZM18.0008 19.4748H9.00079V37.4519H18.0008V19.4748ZM17.9893 28.4633V19.4748H0.0122442V28.4633H17.9893Z" fill="white" mask="url(#path-2-inside-1)"/>
	<path fill-rule="evenodd" clip-rule="evenodd" d="M36.001 29.0847L27.001 20.0962L29.1223 17.9775L38.1223 26.9661L36.001 29.0847Z" fill="white"/>
	<path fill-rule="evenodd" clip-rule="evenodd" d="M27.0007 26.9656L36.0008 17.9771L38.1221 20.0957L29.1221 29.0843L27.0007 26.9656Z" fill="white"/>
</svg>
