<svg width="34" height="34" viewBox="0 0 34 34" fill="none" xmlns="http://www.w3.org/2000/svg">
<path fill-rule="evenodd" clip-rule="evenodd" d="M17 34C26.3888 34 34 26.3888 34 17C34 7.61116 26.3888 0 17 0C7.61116 0 0 7.61116 0 17C0 26.3888 7.61116 34 17 34Z" fill="white"/>
<path fill-rule="evenodd" clip-rule="evenodd" d="M22.1841 20.8159C21.6553 23.7749 19.3785 25.9999 16.65 25.9999C13.9969 25.9999 11.7709 23.8961 11.1637 21.0595C8.64198 22.0832 7 23.7528 7 25.6386C7 28.7525 11.9177 32.9301 17 32.9869C22.3 32.9869 27 28.7525 27 25.6386C27 23.5948 25.0712 21.8048 22.1841 20.8159Z" fill="#141414"/>
<path fill-rule="evenodd" clip-rule="evenodd" d="M22.2868 12.6386C22.2868 9.52469 19.76 7 16.6434 7C13.5268 7 11 9.52469 11 12.6386C11 15.7526 12.2077 22.788 16.6434 22.788C21.0791 22.788 22.2868 15.7526 22.2868 12.6386Z" fill="#141414"/>
</svg>
