<svg width="46" height="37" viewBox="0 0 46 37" fill="none" xmlns="http://www.w3.org/2000/svg">
	<g filter="url(#filter0_d)">
		<path fill-rule="evenodd" clip-rule="evenodd" d="M31.4615 20.7432C32.838 22.2584 33.7456 23.4925 33.8035 23.5925C34.5328 24.8479 32.9969 24.943 32.9969 24.943L30.0604 24.988C30.0604 24.988 29.4277 25.118 28.5969 24.5228C27.4957 23.7476 26.4621 21.7169 25.6507 21.977C24.8345 22.2471 24.8586 24.0777 24.8586 24.0777C24.8586 24.0777 24.8635 24.3978 24.6799 24.6078C24.4771 24.8279 24.081 24.8079 24.081 24.8079H22.7625C22.7625 24.8079 19.8597 25.058 17.3047 22.3021C14.5179 19.2961 12.0595 13.3691 12.0595 13.3691C12.0595 13.3691 11.9194 12.9939 12.0691 12.8039C12.243 12.5938 12.7164 12.5838 12.7164 12.5838L15.8606 12.5688C15.8606 12.5688 16.1552 12.6238 16.3677 12.7839C16.5416 12.9139 16.643 13.164 16.643 13.164C16.643 13.164 17.1502 14.4995 17.8215 15.6999C19.1352 18.0506 19.7486 18.5658 20.193 18.3157C20.845 17.9456 20.647 14.9946 20.647 14.9946C20.647 14.9946 20.6615 13.9193 20.3186 13.4391C20.0577 13.074 19.5651 12.9639 19.3429 12.9339C19.1642 12.9089 19.4588 12.4838 19.8356 12.2937C20.4007 12.0086 21.4004 11.9886 22.5789 12.0036C23.4966 12.0136 23.7622 12.0736 24.1197 12.1637C25.2064 12.4338 24.8393 13.4791 24.8393 15.9899C24.8393 16.7952 24.6992 17.9256 25.2595 18.3007C25.501 18.4608 26.0902 18.3257 27.5585 15.7349C28.2588 14.5045 28.7805 13.064 28.7805 13.064C28.7805 13.064 28.8964 12.8039 29.0751 12.6938C29.2586 12.5838 29.5049 12.6188 29.5049 12.6188L32.8134 12.5938C32.8134 12.5938 33.8035 12.4738 33.9677 12.9389C34.1368 13.4241 33.5958 14.5645 32.2435 16.4301C30.0217 19.4911 30.085 19.228 31.4615 20.7432Z" fill="white"/>
	</g>
	<defs>
		<filter id="filter0_d" x="0" y="0" width="46" height="37" filterUnits="userSpaceOnUse" color-interpolation-filters="sRGB">
			<feFlood flood-opacity="0" result="BackgroundImageFix"/>
			<feColorMatrix in="SourceAlpha" type="matrix" values="0 0 0 0 0 0 0 0 0 0 0 0 0 0 0 0 0 0 127 0"/>
			<feOffset/>
			<feGaussianBlur stdDeviation="6"/>
			<feColorMatrix type="matrix" values="0 0 0 0 1 0 0 0 0 1 0 0 0 0 1 0 0 0 0.95 0"/>
			<feBlend mode="normal" in2="BackgroundImageFix" result="effect1_dropShadow"/>
			<feBlend mode="normal" in="SourceGraphic" in2="effect1_dropShadow" result="shape"/>
		</filter>
	</defs>
</svg>
