<svg width="22" height="13" viewBox="0 0 22 13" fill="none" xmlns="http://www.w3.org/2000/svg">
<path fill-rule="evenodd" clip-rule="evenodd" d="M19.4615 8.7432C20.838 10.2584 21.7456 11.4925 21.8035 11.5925C22.5328 12.8479 20.9969 12.943 20.9969 12.943L18.0604 12.988C18.0604 12.988 17.4277 13.118 16.5969 12.5228C15.4957 11.7476 14.4621 9.7169 13.6507 9.977C12.8345 10.2471 12.8586 12.0777 12.8586 12.0777C12.8586 12.0777 12.8635 12.3978 12.6799 12.6078C12.4771 12.8279 12.081 12.8079 12.081 12.8079H10.7625C10.7625 12.8079 7.85971 13.058 5.30472 10.3021C2.51789 7.2961 0.0594901 1.36908 0.0594901 1.36908C0.0594901 1.36908 -0.0805809 0.993949 0.0691401 0.803889C0.24302 0.593819 0.71635 0.583809 0.71635 0.583809L3.86059 0.568809C3.86059 0.568809 4.15521 0.623829 4.36772 0.783879C4.5416 0.913919 4.64303 1.16401 4.64303 1.16401C4.64303 1.16401 5.15016 2.49946 5.82151 3.69986C7.13523 6.0506 7.74863 6.5658 8.19298 6.3157C8.84501 5.9456 8.64698 2.99462 8.64698 2.99462C8.64698 2.99462 8.66147 1.91926 8.31855 1.4391C8.05774 1.07398 7.56509 0.963939 7.34292 0.933929C7.16421 0.908919 7.45884 0.483779 7.83556 0.293719C8.40066 0.00861907 9.4004 -0.0113909 10.5789 0.00361907C11.4966 0.0136191 11.7622 0.0736391 12.1197 0.163669C13.2064 0.433759 12.8393 1.47911 12.8393 3.98995C12.8393 4.7952 12.6992 5.9256 13.2595 6.3007C13.501 6.4608 14.0902 6.3257 15.5585 3.73487C16.2588 2.50446 16.7805 1.06397 16.7805 1.06397C16.7805 1.06397 16.8964 0.803889 17.0751 0.693849C17.2586 0.583809 17.5049 0.618819 17.5049 0.618819L20.8134 0.593819C20.8134 0.593819 21.8035 0.473779 21.9677 0.938929C22.1368 1.42409 21.5958 2.56448 20.2435 4.4301C18.0217 7.4911 18.085 7.228 19.4615 8.7432Z" fill="white"/>
</svg>
